<svg xmlns="http://www.w3.org/2000/svg" version="1.1" xmlns:xlink="http://www.w3.org/1999/xlink" xmlns:svgjs="http://svgjs.dev/svgjs" width="1500" height="428" viewBox="0 0 1500 428"><g transform="matrix(1,0,0,1,-0.9090909090909918,0.4948756521278028)"><svg viewBox="0 0 396 113" data-background-color="#000000" preserveAspectRatio="xMidYMid meet" height="428" width="1500" xmlns="http://www.w3.org/2000/svg" xmlns:xlink="http://www.w3.org/1999/xlink"><g id="tight-bounds" transform="matrix(1,0,0,1,0.2400000000000091,-0.13065642217392792)"><svg viewBox="0 0 395.52 113.26131284434787" height="113.26131284434787" width="395.52"><g><svg viewBox="0 0 628.8701975915556 180.08359675339815" height="113.26131284434787" width="395.52"><g><rect width="5.468642763091662" height="180.08359675339815" x="213.56573607691502" y="0" fill="#000" opacity="1" stroke-width="0" stroke="transparent" fill-opacity="1" class="rect-qz-0" data-fill-palette-color="primary" rx="1%" id="qz-0" data-palette-color="#000"></rect></g><g transform="matrix(1,0,0,1,233.3501975915555,0.4479691461527153)"><svg viewBox="0 0 395.52 179.18765846109272" height="179.18765846109272" width="395.52"><g id="textblocktransform"><svg viewBox="0 0 395.52 179.18765846109272" height="179.18765846109272" width="395.52" id="textblock"><g><svg viewBox="0 0 395.52 130.79808451145485" height="130.79808451145485" width="395.52"><g transform="matrix(1,0,0,1,0,0)"><svg width="395.52" viewBox="111.14 -37.5 249.36 79.46" height="130.79808451145485" data-palette-color="#000"><svg></svg><svg></svg><g class="wordmark-text-0" data-fill-palette-color="primary" id="text-0"><path transform="translate(110.77,0)" d="M12.65-13.28v13.28h4.68v-13.28l12.28-22.27h-5.07l-8.11 15.04c-0.26 0.487-0.5 0.933-0.72 1.34-0.22 0.413-0.42 0.837-0.6 1.27v0h-0.14c-0.18-0.433-0.38-0.857-0.6-1.27-0.22-0.407-0.46-0.853-0.72-1.34v0l-8.01-15.04h-5.27zM28.52-13.23v0.78c0 3.873 1.06 7.04 3.18 9.5 2.127 2.453 5.183 3.68 9.17 3.68v0c2.44 0 4.51-0.527 6.21-1.58 1.7-1.06 2.957-2.2 3.77-3.42v0l-2.93-2.32c-0.727 0.973-1.677 1.82-2.85 2.54-1.173 0.713-2.573 1.07-4.2 1.07v0c-2.64 0-4.587-0.917-5.84-2.75-1.253-1.827-1.88-4.067-1.88-6.72v0-0.78c0-2.653 0.597-4.897 1.79-6.73 1.187-1.833 2.983-2.75 5.39-2.75v0c1.987 0 3.51 0.653 4.57 1.96 1.053 1.3 1.58 2.877 1.58 4.73v0 0.59h-15.18v3.61h19.75v-1.85c0-3.907-0.943-7.007-2.83-9.3-1.887-2.3-4.58-3.45-8.08-3.45v0c-3.5 0-6.313 1.23-8.44 3.69-2.12 2.46-3.18 5.627-3.18 9.5zM56.81-37.5v37.5h4.54v-37.5zM68.97-37.5v37.5h4.54v-37.5zM79.39-13.23v0.78c0 3.873 1.1 7.04 3.3 9.5 2.2 2.453 5.137 3.68 8.81 3.68v0c3.68 0 6.62-1.227 8.82-3.68 2.193-2.46 3.29-5.627 3.29-9.5v0-0.78c0-3.873-1.097-7.04-3.29-9.5-2.2-2.46-5.14-3.69-8.82-3.69v0c-3.673 0-6.61 1.23-8.81 3.69-2.2 2.46-3.3 5.627-3.3 9.5zM84.03-12.45v-0.78c0-2.653 0.627-4.897 1.88-6.73 1.253-1.833 3.117-2.75 5.59-2.75v0c2.473 0 4.337 0.917 5.59 2.75 1.253 1.833 1.88 4.077 1.88 6.73v0 0.78c0 2.653-0.627 4.893-1.88 6.72-1.253 1.833-3.117 2.75-5.59 2.75v0c-2.473 0-4.337-0.917-5.59-2.75-1.253-1.827-1.88-4.067-1.88-6.72zM110.69-25.68h-4.39l7.93 25.68h3.54l5.59-16.6c0.213-0.653 0.413-1.303 0.6-1.95 0.187-0.653 0.363-1.307 0.53-1.96v0h0.14c0.167 0.653 0.343 1.307 0.53 1.96 0.187 0.647 0.387 1.297 0.6 1.95v0l5.59 16.6h3.54l7.93-25.68h-4.15l-4.59 16.89c-0.18 0.653-0.313 1.183-0.4 1.59-0.093 0.407-0.203 0.933-0.33 1.58v0h-0.15c-0.127-0.647-0.243-1.173-0.35-1.58-0.107-0.407-0.273-0.937-0.5-1.59v0l-5.76-16.89h-3.81l-5.59 16.89c-0.213 0.653-0.373 1.183-0.48 1.59-0.107 0.407-0.223 0.933-0.35 1.58v0h-0.15c-0.127-0.647-0.243-1.173-0.35-1.58-0.107-0.407-0.25-0.937-0.43-1.59v0zM147.05-37.5v37.5h4.54v-18.16c0.613-1.24 1.473-2.25 2.58-3.03 1.107-0.78 2.387-1.17 3.84-1.17v0c1.693 0 3 0.443 3.92 1.33 0.92 0.887 1.38 2.353 1.38 4.4v0 16.63h4.54v-16.58c0-3.447-0.77-5.907-2.31-7.38-1.54-1.473-3.507-2.21-5.9-2.21v0c-1.66 0-3.19 0.333-4.59 1-1.4 0.667-2.553 1.553-3.46 2.66v0-14.99zM173.29-13.23v0.78c0 3.873 1.063 7.04 3.19 9.5 2.12 2.453 5.173 3.68 9.16 3.68v0c2.447 0 4.52-0.527 6.22-1.58 1.7-1.06 2.957-2.2 3.77-3.42v0l-2.93-2.32c-0.733 0.973-1.687 1.82-2.86 2.54-1.167 0.713-2.567 1.07-4.2 1.07v0c-2.633 0-4.577-0.917-5.83-2.75-1.253-1.827-1.88-4.067-1.88-6.72v0-0.78c0-2.653 0.593-4.897 1.78-6.73 1.187-1.833 2.987-2.75 5.4-2.75v0c1.987 0 3.507 0.653 4.56 1.96 1.06 1.3 1.59 2.877 1.59 4.73v0 0.59h-15.19v3.61h19.76v-1.85c0-3.907-0.947-7.007-2.84-9.3-1.887-2.3-4.58-3.45-8.08-3.45v0c-3.5 0-6.31 1.23-8.43 3.69-2.127 2.46-3.19 5.627-3.19 9.5zM199.98-7.57v0c0 2.607 0.853 4.6 2.56 5.98 1.707 1.387 3.78 2.08 6.22 2.08v0c2.12 0 3.85-0.407 5.19-1.22 1.347-0.813 2.32-1.75 2.92-2.81v0c0.047 0.653 0.163 1.303 0.35 1.95 0.187 0.653 0.397 1.183 0.63 1.59v0h4.39v-0.39c-0.293-0.713-0.52-1.54-0.68-2.48-0.167-0.933-0.25-1.93-0.25-2.99v0-11.72c0-2.927-0.85-5.13-2.55-6.61-1.7-1.487-4.097-2.23-7.19-2.23v0c-3.093 0-5.547 0.763-7.36 2.29-1.813 1.52-2.72 3.297-2.72 5.33v0 0.12h4.52v-0.12c0-1.06 0.417-1.99 1.25-2.79 0.84-0.807 2.237-1.21 4.19-1.21v0c1.953 0 3.33 0.483 4.13 1.45 0.793 0.967 1.19 2.223 1.19 3.77v0 1.76h-5.81c-3.187 0-5.813 0.723-7.88 2.17-2.067 1.453-3.1 3.48-3.1 6.08zM204.52-7.81v0c0-1.467 0.583-2.63 1.75-3.49 1.173-0.867 2.9-1.3 5.18-1.3v0h5.32v3.69c0 1.38-0.723 2.69-2.17 3.93-1.447 1.233-3.067 1.85-4.86 1.85v0c-1.787 0-3.103-0.413-3.95-1.24-0.847-0.833-1.27-1.98-1.27-3.44zM226.86-13.23v0.78c0 3.74 0.977 6.833 2.93 9.28 1.947 2.44 4.55 3.66 7.81 3.66v0c1.787 0 3.353-0.373 4.7-1.12 1.34-0.753 2.337-1.657 2.99-2.71v0h0.14l0.2 3.34h4.1v-37.5h-4.54v14.84c-0.747-1.053-1.75-1.903-3.01-2.55-1.267-0.64-2.793-0.96-4.58-0.96v0c-3.26 0-5.863 1.22-7.81 3.66-1.953 2.44-2.93 5.533-2.93 9.28zM231.49-12.45v0-0.78c0-2.607 0.57-4.797 1.71-6.57 1.14-1.773 2.93-2.66 5.37-2.66v0c1.633 0 3.017 0.447 4.15 1.34 1.14 0.893 1.963 1.91 2.47 3.05v0 10.45c-0.507 1.14-1.33 2.157-2.47 3.05-1.133 0.9-2.517 1.35-4.15 1.35v0c-2.44 0-4.23-0.887-5.37-2.66-1.14-1.773-1.71-3.963-1.71-6.57z" fill="#000" fill-rule="nonzero" stroke="none" stroke-width="1" stroke-linecap="butt" stroke-linejoin="miter" stroke-miterlimit="10" stroke-dasharray="" stroke-dashoffset="0" font-family="none" font-weight="none" font-size="none" text-anchor="none" style="mix-blend-mode: normal" data-fill-palette-color="primary" opacity="1"></path><path transform="translate(117.72,41.23)" d="M4.15-35.55v35.55h12.45c3.533 0 6.37-0.897 8.51-2.69 2.14-1.787 3.21-4.307 3.21-7.56v0c0-2.28-0.57-4.12-1.71-5.52-1.14-1.4-2.603-2.36-4.39-2.88v0-0.1c1.46-0.52 2.687-1.39 3.68-2.61 0.993-1.22 1.49-2.807 1.49-4.76v0c0-3.26-1.023-5.647-3.07-7.16-2.053-1.513-4.87-2.27-8.45-2.27v0zM16.6-3.86h-7.86v-12.74h7.86c2.44 0 4.23 0.57 5.37 1.71 1.14 1.14 1.71 2.687 1.71 4.64v0c0 1.953-0.57 3.507-1.71 4.66-1.14 1.153-2.93 1.73-5.37 1.73zM15.87-20.41h-7.13v-11.28h7.13c2.44 0 4.197 0.48 5.27 1.44 1.073 0.96 1.61 2.337 1.61 4.13v0c0 1.787-0.537 3.187-1.61 4.2-1.073 1.007-2.83 1.51-5.27 1.51zM34.38-25.68v25.68h4.54v-18.07c0.487-1.14 1.243-2.09 2.27-2.85 1.02-0.767 2.263-1.15 3.73-1.15v0c0.427 0 0.817 0.017 1.17 0.05 0.36 0.033 0.703 0.08 1.03 0.14v0-4.19c-0.16-0.067-0.437-0.14-0.83-0.22-0.393-0.087-0.767-0.13-1.12-0.13v0c-1.467 0-2.73 0.403-3.79 1.21-1.06 0.807-1.913 1.747-2.56 2.82v0h-0.15l-0.19-3.29zM49.44-13.23v0.78c0 3.873 1.097 7.04 3.29 9.5 2.2 2.453 5.14 3.68 8.82 3.68v0c3.68 0 6.617-1.227 8.81-3.68 2.2-2.46 3.3-5.627 3.3-9.5v0-0.78c0-3.873-1.1-7.04-3.3-9.5-2.193-2.46-5.13-3.69-8.81-3.69v0c-3.68 0-6.62 1.23-8.82 3.69-2.193 2.46-3.29 5.627-3.29 9.5zM54.08-12.45v-0.78c0-2.653 0.627-4.897 1.88-6.73 1.253-1.833 3.117-2.75 5.59-2.75v0c2.473 0 4.337 0.917 5.59 2.75 1.253 1.833 1.88 4.077 1.88 6.73v0 0.78c0 2.653-0.627 4.893-1.88 6.72-1.253 1.833-3.117 2.75-5.59 2.75v0c-2.473 0-4.337-0.917-5.59-2.75-1.253-1.827-1.88-4.067-1.88-6.72zM77.93-7.57v0c0 2.607 0.853 4.6 2.56 5.98 1.713 1.387 3.79 2.08 6.23 2.08v0c2.113 0 3.843-0.407 5.19-1.22 1.34-0.813 2.31-1.75 2.91-2.81v0c0.053 0.653 0.173 1.303 0.36 1.95 0.187 0.653 0.393 1.183 0.62 1.59v0h4.4v-0.39c-0.293-0.713-0.523-1.54-0.69-2.48-0.16-0.933-0.24-1.93-0.24-2.99v0-11.72c0-2.927-0.85-5.13-2.55-6.61-1.7-1.487-4.097-2.23-7.19-2.23v0c-3.093 0-5.547 0.763-7.36 2.29-1.82 1.52-2.73 3.297-2.73 5.33v0 0.12h4.52v-0.12c0-1.06 0.42-1.99 1.26-2.79 0.833-0.807 2.227-1.21 4.18-1.21v0c1.953 0 3.33 0.483 4.13 1.45 0.8 0.967 1.2 2.223 1.2 3.77v0 1.76h-5.81c-3.193 0-5.823 0.723-7.89 2.17-2.067 1.453-3.1 3.48-3.1 6.08zM82.47-7.81v0c0-1.467 0.587-2.63 1.76-3.49 1.173-0.867 2.897-1.3 5.17-1.3v0h5.33v3.69c0 1.38-0.727 2.69-2.18 3.93-1.447 1.233-3.063 1.85-4.85 1.85v0c-1.793 0-3.113-0.413-3.96-1.24-0.847-0.833-1.27-1.98-1.27-3.44zM104.81-13.23v0.78c0 3.74 0.977 6.833 2.93 9.28 1.953 2.44 4.557 3.66 7.81 3.66v0c1.793 0 3.36-0.373 4.7-1.12 1.347-0.753 2.343-1.657 2.99-2.71v0h0.15l0.19 3.34h4.11v-37.5h-4.55v14.84c-0.747-1.053-1.75-1.903-3.01-2.55-1.26-0.64-2.787-0.96-4.58-0.96v0c-3.253 0-5.857 1.22-7.81 3.66-1.953 2.44-2.93 5.533-2.93 9.28zM109.45-12.45v0-0.78c0-2.607 0.57-4.797 1.71-6.57 1.14-1.773 2.93-2.66 5.37-2.66v0c1.627 0 3.01 0.447 4.15 1.34 1.14 0.893 1.96 1.91 2.46 3.05v0 10.45c-0.5 1.14-1.32 2.157-2.46 3.05-1.14 0.9-2.523 1.35-4.15 1.35v0c-2.44 0-4.23-0.887-5.37-2.66-1.14-1.773-1.71-3.963-1.71-6.57zM134.91-37.5v37.5h4.1l0.2-3.34h0.15c0.647 1.053 1.643 1.957 2.99 2.71 1.34 0.747 2.907 1.12 4.7 1.12v0c3.253 0 5.857-1.22 7.81-3.66 1.953-2.447 2.93-5.54 2.93-9.28v0-0.78c0-3.747-0.977-6.84-2.93-9.28-1.953-2.44-4.557-3.66-7.81-3.66v0c-1.793 0-3.32 0.32-4.58 0.96-1.26 0.647-2.267 1.497-3.02 2.55v0-14.84zM139.45-7.62v0-10.45c0.507-1.14 1.33-2.157 2.47-3.05 1.14-0.893 2.523-1.34 4.15-1.34v0c2.44 0 4.23 0.887 5.37 2.66 1.14 1.773 1.71 3.963 1.71 6.57v0 0.78c0 2.607-0.57 4.797-1.71 6.57-1.14 1.773-2.93 2.66-5.37 2.66v0c-1.627 0-3.01-0.45-4.15-1.35-1.14-0.893-1.963-1.91-2.47-3.05zM162.06-7.57v0c0 2.607 0.853 4.6 2.56 5.98 1.713 1.387 3.79 2.08 6.23 2.08v0c2.113 0 3.843-0.407 5.19-1.22 1.34-0.813 2.313-1.75 2.92-2.81v0c0.047 0.653 0.163 1.303 0.35 1.95 0.187 0.653 0.393 1.183 0.62 1.59v0h4.4v-0.39c-0.293-0.713-0.523-1.54-0.69-2.48-0.16-0.933-0.24-1.93-0.24-2.99v0-11.72c0-2.927-0.85-5.13-2.55-6.61-1.7-1.487-4.097-2.23-7.19-2.23v0c-3.093 0-5.547 0.763-7.36 2.29-1.82 1.52-2.73 3.297-2.73 5.33v0 0.12h4.52v-0.12c0-1.06 0.42-1.99 1.26-2.79 0.84-0.807 2.237-1.21 4.19-1.21v0c1.947 0 3.32 0.483 4.12 1.45 0.8 0.967 1.2 2.223 1.2 3.77v0 1.76h-5.81c-3.193 0-5.823 0.723-7.89 2.17-2.067 1.453-3.1 3.48-3.1 6.08zM166.6-7.81v0c0-1.467 0.587-2.63 1.76-3.49 1.173-0.867 2.9-1.3 5.18-1.3v0h5.32v3.69c0 1.38-0.727 2.69-2.18 3.93-1.447 1.233-3.063 1.85-4.85 1.85v0c-1.793 0-3.113-0.413-3.96-1.24-0.847-0.833-1.27-1.98-1.27-3.44zM190.48-25.68v25.68h4.54v-18.16c0.62-1.24 1.483-2.25 2.59-3.03 1.107-0.78 2.383-1.17 3.83-1.17v0c1.693 0 3 0.443 3.92 1.33 0.92 0.887 1.38 2.353 1.38 4.4v0 16.63h4.54v-16.58c0-3.447-0.77-5.907-2.31-7.38-1.533-1.473-3.597-2.21-6.19-2.21v0c-1.627 0-3.11 0.337-4.45 1.01-1.347 0.673-2.483 1.597-3.41 2.77v0h-0.14l-0.2-3.29zM216.72-13.23v0.78c0 3.74 0.977 6.833 2.93 9.28 1.953 2.44 4.56 3.66 7.82 3.66v0c1.787 0 3.353-0.373 4.7-1.12 1.34-0.753 2.337-1.657 2.99-2.71v0h0.14l0.2 3.34h4.1v-37.5h-4.54v14.84c-0.747-1.053-1.753-1.903-3.02-2.55-1.26-0.64-2.783-0.96-4.57-0.96v0c-3.26 0-5.867 1.22-7.82 3.66-1.953 2.44-2.93 5.533-2.93 9.28zM221.36-12.45v0-0.78c0-2.607 0.57-4.797 1.71-6.57 1.14-1.773 2.93-2.66 5.37-2.66v0c1.627 0 3.01 0.447 4.15 1.34 1.14 0.893 1.963 1.91 2.47 3.05v0 10.45c-0.507 1.14-1.33 2.157-2.47 3.05-1.14 0.9-2.523 1.35-4.15 1.35v0c-2.44 0-4.23-0.887-5.37-2.66-1.14-1.773-1.71-3.963-1.71-6.57z" fill="#000" fill-rule="nonzero" stroke="none" stroke-width="1" stroke-linecap="butt" stroke-linejoin="miter" stroke-miterlimit="10" stroke-dasharray="" stroke-dashoffset="0" font-family="none" font-weight="none" font-size="none" text-anchor="none" style="mix-blend-mode: normal" data-fill-palette-color="primary" opacity="1"></path></g></svg></g></svg></g><g transform="matrix(1,0,0,1,75.54432,145.1139032630037)"><svg viewBox="0 0 244.43135999999998 34.073755198089025" height="34.073755198089025" width="244.43135999999998"><g transform="matrix(1,0,0,1,0,0)"><svg width="244.43135999999998" viewBox="1.76 -36.064310303512 262.23 36.5604781602" height="34.073755198089025" data-palette-color="#000"><path d="M9.03-16.43L23.41-16.43 24.1-20.26 9.69-20.26 11.67-31.69 28.25-31.69 28.93-35.55 7.93-35.55 1.76 0 22.95 0 23.63-3.83 6.84-3.83 9.03-16.43ZM49.31-7.18L49.31-7.18Q49.14-6.03 48.45-5.25 47.75-4.47 46.77-4.03L46.77-4.03Q45.8-3.56 44.7-3.37 43.6-3.17 42.62-3.2L42.62-3.2Q41.43-3.2 40.38-3.5 39.33-3.81 38.55-4.42L38.55-4.42Q37.77-5 37.3-5.93 36.84-6.86 36.81-8.13L36.81-8.13 32.42-8.15Q32.37-6.03 33.21-4.43 34.06-2.83 35.47-1.76L35.47-1.76Q36.89-0.66 38.71-0.1 40.52 0.46 42.48 0.49L42.48 0.49Q44.33 0.54 46.29 0.09 48.24-0.37 49.85-1.34L49.85-1.34Q51.46-2.29 52.54-3.83 53.61-5.37 53.71-7.5L53.71-7.5Q53.76-8.74 53.39-9.74 53.02-10.74 52.37-11.52L52.37-11.52Q51.71-12.28 50.79-12.85 49.88-13.43 48.85-13.87L48.85-13.87Q47.82-14.31 46.75-14.62 45.68-14.94 44.68-15.19L44.68-15.19Q43.87-15.36 42.91-15.6 41.94-15.84 41.14-16.26L41.14-16.26Q40.33-16.67 39.83-17.37 39.33-18.07 39.48-19.17L39.48-19.17Q39.62-20.26 40.26-21.03 40.89-21.8 41.79-22.29L41.79-22.29Q42.7-22.75 43.74-22.97 44.77-23.19 45.75-23.17L45.75-23.17Q46.77-23.14 47.71-22.85 48.65-22.56 49.39-22L49.39-22Q50.1-21.41 50.51-20.58 50.93-19.75 50.93-18.65L50.93-18.65 55.3-18.63Q55.32-20.65 54.56-22.18 53.81-23.71 52.51-24.76L52.51-24.76Q51.22-25.78 49.5-26.32 47.78-26.86 45.92-26.9L45.92-26.9Q44.33-26.93 42.72-26.56 41.11-26.2 39.57-25.44L39.57-25.44Q37.81-24.58 36.5-22.9 35.18-21.22 35.1-18.99L35.1-18.99Q35.03-17.16 35.85-15.88 36.67-14.6 37.99-13.75L37.99-13.75Q39.13-12.99 40.5-12.49 41.87-11.99 43.19-11.65L43.19-11.65Q43.99-11.45 44.88-11.23 45.77-11.01 46.68-10.64L46.68-10.64Q47.24-10.42 47.74-10.13 48.24-9.84 48.63-9.45L48.63-9.45Q49.02-9.03 49.22-8.47 49.41-7.91 49.31-7.18ZM75.24-26.42L76.36-32.81 71.92-32.81 70.8-26.42 64.08-26.42 63.47-22.92 70.21-22.92 67.82-8.57Q67.65-6.76 67.95-5.14 68.26-3.52 69.09-2.29L69.09-2.29Q69.92-1.05 71.28-0.31 72.65 0.44 74.63 0.46L74.63 0.46Q76.36 0.51 78.24 0.24 80.12-0.02 81.66-0.88L81.66-0.88 81.25-4.13Q79.93-3.83 78.6-3.59 77.27-3.34 75.92-3.39L75.92-3.39Q74.75-3.42 73.98-3.83 73.21-4.25 72.8-4.93L72.8-4.93Q72.38-5.62 72.25-6.54 72.11-7.47 72.24-8.54L72.24-8.54 74.63-22.92 84.39-22.92 85-26.42 75.24-26.42ZM97.75-2.81L97.75-2.81Q97.75-1.37 98.7-0.44 99.65 0.49 101.14 0.49L101.14 0.49Q102.63 0.49 103.65-0.49 104.68-1.46 104.68-3.05L104.68-3.05Q104.68-4.59 103.7-5.54 102.73-6.49 101.24-6.45L101.24-6.45Q99.65-6.45 98.7-5.37 97.75-4.3 97.75-2.81ZM147.08 0L169.71 0 170.3-3.69 153.14-3.69 164.03-14.04Q165.32-15.26 166.7-16.63 168.08-17.99 169.25-19.53L169.25-19.53Q170.4-21.07 171.22-22.78 172.03-24.49 172.18-26.37L172.18-26.37Q172.35-28.52 171.72-30.29 171.08-32.06 169.84-33.33L169.84-33.33Q168.57-34.59 166.78-35.29 165-35.99 162.9-36.04L162.9-36.04Q160.44-36.08 158.28-35.29 156.12-34.5 154.46-33.06L154.46-33.06Q152.8-31.59 151.75-29.55 150.7-27.51 150.45-25.07L150.45-25.07 154.85-25.1Q155.07-26.71 155.68-28.06 156.29-29.42 157.29-30.4L157.29-30.4Q158.26-31.35 159.61-31.87 160.95-32.4 162.68-32.35L162.68-32.35Q163.98-32.3 164.98-31.8 165.98-31.3 166.64-30.47L166.64-30.47Q167.3-29.64 167.57-28.53 167.83-27.42 167.69-26.17L167.69-26.17Q167.49-24.66 166.77-23.29 166.05-21.92 165.05-20.68L165.05-20.68Q164.05-19.43 162.9-18.32 161.76-17.21 160.75-16.21L160.75-16.21 147.62-3.44 147.08 0ZM201.72-13.65L201.72-13.65 203.04-21.92Q203.16-22.83 203.2-23.8 203.23-24.78 203.21-25.56L203.21-25.56Q203.16-27.29 202.69-29.05 202.23-30.81 201.35-32.2L201.35-32.2Q200.3-33.91 198.47-34.95 196.64-35.99 193.98-36.06L193.98-36.06Q191.9-36.11 190.19-35.58 188.49-35.06 187.12-34.11L187.12-34.11Q185.73-33.13 184.65-31.79 183.58-30.44 182.8-28.86L182.8-28.86Q181.99-27.27 181.48-25.5 180.97-23.73 180.7-21.92L180.7-21.92 179.38-13.6Q179.16-11.91 179.21-10.23 179.26-8.54 179.62-7.01L179.62-7.01Q179.97-5.44 180.65-4.1 181.33-2.76 182.43-1.76L182.43-1.76Q183.51-0.76 185.01-0.16 186.51 0.44 188.46 0.49L188.46 0.49Q190.1 0.54 191.5 0.22 192.9-0.1 194.1-0.71L194.1-0.71Q195.93-1.66 197.31-3.25 198.69-4.83 199.64-6.74L199.64-6.74Q200.42-8.3 200.94-10.07 201.45-11.84 201.72-13.65ZM193.76-32.35L193.76-32.35Q195.32-32.3 196.36-31.71 197.4-31.13 198.03-30.15L198.03-30.15Q198.64-29.17 198.89-27.91 199.13-26.64 199.11-25.24L199.11-25.24 183.92-14.7Q184.02-15.09 184.05-15.41 184.09-15.72 184.21-16.43L184.21-16.43 185.29-22.92Q185.46-24.07 185.75-25.2 186.04-26.32 186.48-27.34L186.48-27.34Q186.97-28.44 187.64-29.37 188.32-30.3 189.17-30.98L189.17-30.98Q190.05-31.67 191.2-32.03 192.34-32.4 193.76-32.35ZM188.68-3.17L188.68-3.17Q187.14-3.22 186.11-3.81 185.07-4.39 184.46-5.35L184.46-5.35Q183.82-6.3 183.57-7.54 183.31-8.79 183.33-10.16L183.33-10.16 198.45-20.61Q198.3-19.68 198.2-19.15 198.11-18.63 197.98-17.85L197.98-17.85 197.13-12.65Q196.96-11.55 196.68-10.45 196.4-9.35 195.98-8.35L195.98-8.35Q195.47-7.08 194.65-5.98 193.83-4.88 192.71-4.17L192.71-4.17Q191.9-3.66 190.89-3.39 189.88-3.13 188.68-3.17ZM216.8 0L221.22 0 227.25-35.55 226.79-35.55 213.07-30.47 212.29-26.15 221.96-29.66 216.8 0ZM244.24 0L263.55-32.76 263.99-35.55 240.65-35.55 240.02-31.59 258.6-31.59 239.41 0 244.24 0Z" opacity="1" transform="matrix(1,0,0,1,0,0)" fill="#000" class="slogan-text-1" data-fill-palette-color="secondary" id="text-1"></path></svg></g></svg></g></svg></g></svg></g><g transform="matrix(1,0,0,1,0,0.4479691461527153)"><svg viewBox="0 0 199.24991732536617 179.18765846109272" height="179.18765846109272" width="199.24991732536617"><g><svg xmlns="http://www.w3.org/2000/svg" xmlns:xlink="http://www.w3.org/1999/xlink" version="1.1" x="0" y="0" viewBox="1.4865958342062195 6.171999999999999 93.02231653074521 83.656" enable-background="new 0 0 96 96" xml:space="preserve" height="179.18765846109272" width="199.24991732536617" class="icon-icon-0" data-fill-palette-color="accent" id="icon-0"><path d="M35.152 69.992c-2.712-6.092-4.288-12.916-4.54-20H66.4c-0.252 7.084-1.828 13.908-4.545 20H35.152zM63.496 20.38c4.048-2.004 7.939-3.66 11.52-4.852-6.42-5.252-14.408-8.66-23.168-9.356C56.54 9.968 60.456 14.824 63.496 20.38zM59.8 21.992c-2.944-5.252-6.752-9.776-11.296-13.236-4.544 3.452-8.352 7.984-11.296 13.236H59.8zM53.268 25.992H35.172c-2.16 4.832-3.56 10.124-4.192 15.64 2.264-1.848 4.584-3.664 6.928-5.412C42.876 32.548 48.088 29.08 53.268 25.992zM81.42 21.992c-0.928-1.172-1.924-2.288-2.972-3.352-2.656 0.756-5.685 1.868-9.044 3.352H81.42zM61.271 25.992c-6.34 3.416-13.416 7.844-20.983 13.452-2.984 2.208-5.752 4.392-8.348 6.548h34.449c-0.257-7.084-1.837-13.908-4.561-20H61.271zM11.228 67.08c0.504 0.984 0.984 1.977 1.568 2.916H30.82c-2.432-6.028-3.868-12.612-4.16-19.444C19.888 56.632 14.752 62.28 11.228 67.08zM51.904 89.828c11.947-0.964 22.496-6.936 29.531-15.836H64.439C61.309 80.244 57.036 85.648 51.904 89.828zM45.152 6.172c-11.964 0.948-22.516 6.92-29.564 15.82h17.004C35.732 15.744 40.004 10.344 45.152 6.172zM37.18 73.992c2.944 5.264 6.76 9.82 11.324 13.283 4.561-3.463 8.38-8.016 11.324-13.283H37.18zM66.172 25.992c2.508 6.188 3.98 12.968 4.221 20h20.012c-0.348-7.312-2.564-14.128-6.196-20H66.172zM66.191 69.992h18.033c3.623-5.872 5.84-12.688 6.184-20H70.4C70.16 57.023 68.695 63.8 66.191 69.992L66.191 69.992zM32.572 73.992H15.58c7.036 8.9 17.576 14.872 29.528 15.836C39.968 85.648 35.696 80.244 32.572 73.992zM26.672 45.244c0.316-6.756 1.744-13.28 4.16-19.252H12.8c-3.632 5.872-5.848 12.688-6.196 20h19.2C26.088 45.744 26.384 45.496 26.672 45.244zM21.416 49.992H6.608c0.216 4.552 1.224 8.876 2.776 12.928C12.664 58.744 16.788 54.352 21.416 49.992zM11.976 82.2c-3.044 0.315-5.176-0.12-6.012-1.248-1.24-1.668-0.268-5.36 2.848-10.36-1.168-1.972-2.124-3.624-2.24-3.82C1.908 73.668 0.02 79.656 2.748 83.34c1.468 1.969 3.952 2.965 7.404 2.965 0.708 0 1.456-0.049 2.244-0.129 1.096-0.111 1.9-1.096 1.776-2.199C14.06 82.88 13.084 82.08 11.976 82.2zM93.212 16.316c-2.349-3.168-7.336-3.556-13.748-2.044l3.076 2.96c0.116 0.124 0.228 0.252 0.34 0.388 3.672-0.584 6.168-0.216 7.116 1.076 0.96 1.3 0.4 3.608-0.248 5.32-0.389 1.04 0.136 2.188 1.172 2.584 1.023 0.384 2.188-0.136 2.576-1.172C94.936 21.584 94.84 18.524 93.212 16.316L93.212 16.316z" fill="#000" data-fill-palette-color="accent"></path></svg></g></svg></g></svg></g><defs></defs></svg><rect width="395.52" height="113.26131284434787" fill="none" stroke="none" visibility="hidden"></rect></g></svg></g></svg>